<svg width="86" height="86" viewBox="0 0 86 86" fill="none" xmlns="http://www.w3.org/2000/svg">
<path d="M77.9375 83.3125C77.3266 83.3122 76.7341 83.1036 76.2578 82.7212L63.5594 72.5625H53.75C53.0372 72.5625 52.3537 72.2793 51.8496 71.7753C51.3456 71.2713 51.0625 70.5877 51.0625 69.875V56.4375C51.0625 55.7247 51.3456 55.0411 51.8496 54.5371C52.3537 54.0331 53.0372 53.75 53.75 53.75H63.5594L76.2605 43.5912C76.6557 43.2756 77.1319 43.078 77.6343 43.0209C78.1368 42.9639 78.6452 43.0498 79.1011 43.2687C79.5569 43.4877 79.9417 43.8308 80.2113 44.2586C80.4809 44.6865 80.6243 45.1818 80.625 45.6875V80.625C80.625 81.3377 80.3419 82.0213 79.8379 82.5253C79.3338 83.0293 78.6503 83.3125 77.9375 83.3125ZM56.4375 67.1875H64.5C65.1108 67.1879 65.7033 67.3965 66.1797 67.7787L75.25 75.035V51.2775L66.177 58.5337C65.7013 58.9154 65.1099 59.1239 64.5 59.125H56.4375V67.1875Z" fill="#FAD30A"/>
<path d="M43 75.2501H21.5V10.7501H43V26.8751C43.0043 28.2993 43.5719 29.664 44.579 30.6711C45.5861 31.6781 46.9508 32.2458 48.375 32.2501H64.5V40.3126H69.875V26.8751C69.8845 26.5219 69.8173 26.1708 69.6781 25.846C69.539 25.5213 69.3311 25.2305 69.0688 24.9938L50.2563 6.18131C50.0196 5.91886 49.7289 5.71086 49.4041 5.57167C49.0793 5.43247 48.7282 5.3654 48.375 5.37506H21.5C20.0758 5.37931 18.7111 5.94697 17.704 6.95406C16.6969 7.96115 16.1293 9.32583 16.125 10.7501V75.2501C16.1293 76.6743 16.6969 78.039 17.704 79.0461C18.7111 80.0531 20.0758 80.6208 21.5 80.6251H43V75.2501ZM48.375 11.8251L63.425 26.8751H48.375V11.8251Z" fill="#FAD30A"/>
</svg>
