<svg width="86" height="86" viewBox="0 0 86 86" fill="none" xmlns="http://www.w3.org/2000/svg">
<path d="M63.4011 43C63.3912 39.7878 63.0469 36.5854 62.3739 33.4445H70.9739C70.531 32.1343 69.9962 30.8571 69.3734 29.6223H61.3706C59.8662 24.5962 57.5328 19.8567 54.4667 15.5995C52.5078 14.7758 50.4653 14.167 48.375 13.7839C52.5755 18.2971 55.7461 23.6684 57.6678 29.5267H44.7917V13.3778H41.2084V29.5506H28.3322C30.2579 23.6817 33.4369 18.3018 37.6489 13.7839C35.5676 14.1607 33.5332 14.7614 31.5811 15.5756C28.5029 19.815 26.1535 24.5381 24.6295 29.5506H16.5789C15.9448 30.8079 15.4019 32.1093 14.9545 33.4445H23.6261C22.9532 36.5854 22.6089 39.7878 22.5989 43C22.6055 46.5136 23.0062 50.0153 23.7934 53.4395H15.3367C15.8309 54.7785 16.4217 56.0799 17.1045 57.3334H24.8206C26.2831 61.91 28.4512 66.2302 31.2467 70.1378C33.2485 70.9964 35.3397 71.6294 37.4817 72.025C33.5828 67.7722 30.5844 62.7748 28.6667 57.3334H41.2322V72.4789H44.8156V57.3334H57.3334C55.4091 62.7771 52.4024 67.7748 48.4945 72.025C50.6465 71.6157 52.7459 70.9667 54.7534 70.09C57.5444 66.197 59.7124 61.8933 61.1795 57.3334H68.8239C69.5035 56.1031 70.0943 54.8257 70.5917 53.5111H62.1111C62.9358 50.0672 63.3686 46.5411 63.4011 43ZM41.2084 53.4395H27.4961C25.8143 46.8649 25.7405 39.9819 27.2811 33.3728H41.2084V53.4395ZM58.5039 53.4395H44.7917V33.4445H58.7189C59.4052 36.5828 59.7417 39.7876 59.7222 43C59.7417 46.5164 59.3325 50.0221 58.5039 53.4395Z" fill="#FAD30A"/>
<path d="M43 4.77783C35.4404 4.77783 28.0505 7.01953 21.7649 11.2194C15.4793 15.4193 10.5802 21.3888 7.68728 28.373C4.79433 35.3572 4.0374 43.0425 5.51222 50.4568C6.98703 57.8712 10.6273 64.6818 15.9728 70.0273C21.3183 75.3727 28.1288 79.013 35.5432 80.4879C42.9576 81.9627 50.6428 81.2057 57.627 78.3128C64.6112 75.4198 70.5807 70.5208 74.7806 64.2352C78.9805 57.9496 81.2222 50.5597 81.2222 43.0001C81.2222 32.8629 77.1953 23.1409 70.0272 15.9729C62.8592 8.80481 53.1372 4.77783 43 4.77783ZM43 76.4445C36.3853 76.4445 29.9192 74.483 24.4193 70.8081C18.9194 67.1332 14.6327 61.9099 12.1014 55.7987C9.57004 49.6875 8.90773 42.963 10.1982 36.4754C11.4887 29.9878 14.6739 24.0286 19.3512 19.3513C24.0285 14.674 29.9877 11.4887 36.4753 10.1982C42.9629 8.90777 49.6875 9.57009 55.7987 12.1014C61.9098 14.6327 67.1331 18.9194 70.8081 24.4193C74.483 29.9192 76.4445 36.3854 76.4445 43.0001C76.4445 51.8701 72.9209 60.3768 66.6488 66.6488C60.3768 72.9209 51.87 76.4445 43 76.4445Z" fill="#FAD30A"/>
</svg>
