<svg width="86" height="86" viewBox="0 0 86 86" fill="none" xmlns="http://www.w3.org/2000/svg">
<path d="M21.5 51.0625C25.9528 51.0625 29.5625 47.4528 29.5625 43C29.5625 38.5472 25.9528 34.9375 21.5 34.9375C17.0472 34.9375 13.4375 38.5472 13.4375 43C13.4375 47.4528 17.0472 51.0625 21.5 51.0625Z" stroke="#FAD30A" stroke-width="6" stroke-linecap="round" stroke-linejoin="round"/>
<path d="M64.5 26.875C68.9528 26.875 72.5625 23.2653 72.5625 18.8125C72.5625 14.3597 68.9528 10.75 64.5 10.75C60.0472 10.75 56.4375 14.3597 56.4375 18.8125C56.4375 23.2653 60.0472 26.875 64.5 26.875Z" stroke="#FAD30A" stroke-width="6" stroke-linecap="round" stroke-linejoin="round"/>
<path d="M64.5 75.25C68.9528 75.25 72.5625 71.6403 72.5625 67.1875C72.5625 62.7347 68.9528 59.125 64.5 59.125C60.0472 59.125 56.4375 62.7347 56.4375 67.1875C56.4375 71.6403 60.0472 75.25 64.5 75.25Z" stroke="#FAD30A" stroke-width="6" stroke-linecap="round" stroke-linejoin="round"/>
<path d="M28.5261 46.9523L57.4739 63.2352M57.4739 22.7648L28.5261 39.0477" stroke="#FAD30A" stroke-width="3" stroke-linecap="round" stroke-linejoin="round"/>
</svg>
