<svg width="74" height="74" viewBox="0 0 74 74" fill="none" xmlns="http://www.w3.org/2000/svg">
<path d="M34.7942 57.2975C29.2781 57.0367 24.0745 54.6611 20.2642 50.664C16.454 46.6668 14.3299 41.3556 14.3333 35.8333C14.3333 23.9725 23.9725 14.3333 35.8333 14.3333C47.3717 14.3333 56.76 23.3992 57.2975 34.7942L49.7725 32.5367C49.1868 30.0526 47.9483 27.7701 46.1851 25.925C44.4218 24.0799 42.1978 22.7391 39.7429 22.0414C37.288 21.3436 34.6913 21.3142 32.2212 21.9561C29.751 22.598 27.4972 23.8879 25.6925 25.6925C23.8879 27.4972 22.598 29.751 21.9561 32.2212C21.3142 34.6913 21.3436 37.288 22.0414 39.7429C22.7391 42.1978 24.0799 44.4218 25.925 46.1851C27.7701 47.9483 30.0526 49.1868 32.5367 49.7725L34.7942 57.2975ZM71.6667 35.8333C71.6667 36.9083 71.6308 37.9833 71.5233 39.0583L64.4642 36.9442C64.5 36.5858 64.5 36.1917 64.5 35.8333C64.5 19.995 51.6717 7.16667 35.8333 7.16667C19.995 7.16667 7.16667 19.995 7.16667 35.8333C7.16667 51.6717 19.995 64.5 35.8333 64.5C36.1917 64.5 36.5858 64.5 36.9442 64.4642L39.0583 71.5233C37.9833 71.6308 36.9083 71.6667 35.8333 71.6667C16.0533 71.6667 0 55.6133 0 35.8333C0 16.0533 16.0533 0 35.8333 0C55.6133 0 71.6667 16.0533 71.6667 35.8333ZM58.1575 51.0983L71.6667 46.5833L35.8333 35.8333L46.5833 71.6667L51.0983 58.1575L66.3992 73.4583L73.4942 66.3633L58.1575 51.0983Z" fill="#FAD30A"/>
</svg>
