<svg width="86" height="86" viewBox="0 0 86 86" fill="none" xmlns="http://www.w3.org/2000/svg">
<g clip-path="url(#clip0_2_5243)">
<path d="M5.84815 40.8285V71.6036H18.8771L19.535 71.681C31.6309 74.5018 39.6461 76.5357 43.6409 77.7956C48.9471 79.4683 50.925 79.8768 54.5242 80.1176C57.216 80.3025 60.2733 79.2662 61.6665 77.8472C62.4361 77.0646 63.0123 75.4564 63.2402 72.9624C63.2875 72.4394 63.4744 71.9387 63.7816 71.5128C64.0887 71.0869 64.5047 70.7514 64.9861 70.5415C66.0568 70.0771 66.9469 69.3203 67.6908 68.2195C68.3788 67.2133 68.8259 65.3385 68.9076 62.6252C68.922 62.1263 69.0634 61.6394 69.3185 61.2105C69.5736 60.7816 69.9339 60.4249 70.3654 60.1742C72.868 58.7251 74.1064 57.0911 74.3644 55.1733C74.6482 53.0534 73.9602 50.6669 72.1585 47.9493C71.7357 47.3119 71.5783 46.5348 71.7196 45.7832C71.8609 45.0316 72.2899 44.3647 72.9153 43.9245C74.6395 42.7119 75.5855 41.0263 75.8221 38.6355C76.2005 34.8257 73.771 32.0092 68.2712 31.4459C63.373 30.9614 58.4274 31.3738 53.6771 32.6628C53.1382 32.8036 52.5703 32.7876 52.0402 32.6166C51.5101 32.4457 51.0399 32.1269 50.6849 31.6977C50.3298 31.2686 50.1047 30.747 50.0361 30.1943C49.9674 29.6416 50.058 29.0807 50.2972 28.5778C52.4473 24.0284 53.6427 20.2745 53.9221 17.3677C54.2877 13.5106 53.3975 10.7156 51.3163 8.41076C49.7383 6.66496 47.2141 5.66736 46.2682 5.87376C45.0211 6.14036 44.2085 6.86276 43.1507 9.39116C42.5271 10.8876 42.2261 12.1604 41.7101 15.1317C41.2156 17.9525 40.9448 19.2253 40.3815 20.8937C38.6829 25.9505 34.5162 31.1922 28.9219 34.8085C25.0012 37.3399 20.7519 39.3221 16.2928 40.6995C16.0143 40.7853 15.7244 40.8288 15.4328 40.8285H5.84815ZM5.66755 77.4645C4.27865 77.5032 3.03165 77.1936 1.98675 76.4626C0.653747 75.5295 0.0259465 74.0589 0.0130465 72.3647L0.0259465 40.8758C-0.120254 39.1988 0.374246 37.6594 1.54385 36.5156C2.64035 35.4406 4.07225 34.9332 5.58585 34.9676H14.9813C18.7819 33.7566 22.4054 32.0475 25.7571 29.885C30.2635 26.9696 33.5831 22.79 34.8516 19.0232C35.2859 17.7246 35.5182 16.6496 35.9568 14.1212C36.5502 10.7285 36.92 9.15036 37.7714 7.12076C39.5344 2.89816 41.8477 0.834157 45.0383 0.141857C48.1773 -0.537543 52.7483 1.27276 55.6379 4.47196C58.8414 8.01516 60.2561 12.4485 59.7314 17.9267C59.5079 20.2831 58.8543 22.919 57.7793 25.8559C61.4505 25.3208 65.1736 25.24 68.8646 25.6151C77.4948 26.4966 82.3409 32.1167 81.6357 39.2203C81.326 42.2819 80.2167 44.8834 78.3289 46.9259C79.9156 49.9832 80.5477 53.0061 80.1521 55.9559C79.6963 59.3529 77.8043 62.1823 74.6567 64.3796C74.4116 67.3595 73.728 69.7374 72.5154 71.5176C71.5599 72.9558 70.3133 74.1775 68.8561 75.1038C68.3917 78.045 67.4156 80.3455 65.8203 81.9623C63.1758 84.6541 58.4501 86.258 54.1329 85.9656C50.035 85.6904 47.6097 85.1916 41.8907 83.3856C38.1196 82.1945 30.3108 80.2165 18.5417 77.4645H5.66325H5.66755ZM12.9818 39.4912C12.9807 39.1064 13.0555 38.7253 13.202 38.3696C13.3484 38.0138 13.5636 37.6904 13.8352 37.418C14.1069 37.1456 14.4296 36.9294 14.7849 36.782C15.1402 36.6345 15.5211 36.5586 15.9058 36.5586C16.2898 36.5597 16.6698 36.6364 17.0242 36.7844C17.3785 36.9324 17.7002 37.1487 17.9709 37.4211C18.2416 37.6934 18.4561 38.0163 18.602 38.3715C18.7479 38.7267 18.8224 39.1072 18.8212 39.4912V72.5066C18.8218 72.8905 18.7467 73.2709 18.6003 73.6259C18.4539 73.9808 18.239 74.3035 17.9679 74.5754C17.6967 74.8473 17.3747 75.0632 17.0202 75.2106C16.6656 75.3581 16.2855 75.4343 15.9015 75.4349C15.5176 75.4343 15.1374 75.3581 14.7829 75.2106C14.4284 75.0632 14.1063 74.8473 13.8352 74.5754C13.5641 74.3035 13.3492 73.9808 13.2028 73.6259C13.0564 73.2709 12.9813 72.8905 12.9818 72.5066V39.4912Z" fill="#FAD30A"/>
</g>
<defs>
<clipPath id="clip0_2_5243">
<rect width="86" height="86" fill="white"/>
</clipPath>
</defs>
</svg>
