<svg width="99" height="92" viewBox="0 0 99 92" fill="none" xmlns="http://www.w3.org/2000/svg">
<path d="M6.3074 29.4616H92.3078M3.70672 31.9858L46.6552 87.6918C46.9673 88.0987 47.3689 88.4283 47.8289 88.6551C48.2888 88.882 48.7947 89 49.3076 89C49.8204 89 50.3264 88.882 50.7863 88.6551C51.2462 88.4283 51.6478 88.0987 51.9599 87.6918L94.9084 31.9858C95.3307 31.436 95.5757 30.7707 95.6108 30.0783C95.6459 29.386 95.4694 28.6993 95.1048 28.1096L80.5365 4.5939C80.2365 4.10725 79.8172 3.70536 79.3182 3.42639C78.8193 3.14742 78.2573 3.00064 77.6856 3H20.9295C20.3579 3.00064 19.7959 3.14742 19.2969 3.42639C18.798 3.70536 18.3786 4.10725 18.0787 4.5939L3.51032 28.1096C3.14576 28.6993 2.9693 29.386 3.00438 30.0783C3.03946 30.7707 3.28442 31.436 3.70672 31.9858V31.9858Z" stroke="#FAD30A" stroke-width="5" stroke-linecap="round" stroke-linejoin="round"/>
<path d="M49.3076 85.6926L69.1538 29.4616M79.0769 6.30771L69.1538 29.4616L49.3076 3L79.0769 6.30771ZM19.5382 6.30771L29.4614 29.4616L49.3076 3L19.5382 6.30771ZM49.3076 85.6926L29.4614 29.4616L49.3076 85.6926Z" stroke="#FAD30A" stroke-width="5" stroke-linecap="round" stroke-linejoin="round"/>
</svg>
