<svg width="92" height="92" viewBox="0 0 92 92" fill="none" xmlns="http://www.w3.org/2000/svg">
<path d="M20.2 58.04L6.44 54.6C6.44 54.6 6.44 44.28 9.88 33.96C13.32 23.64 37.4 23.64 37.4 23.64L20.2 58.04ZM33.96 71.8L37.4 85.56C37.4 85.56 47.72 85.56 58.04 82.12C68.36 78.68 68.36 54.6 68.36 54.6L33.96 71.8ZM20.2 58.04L33.96 71.8C33.96 71.8 68.36 58.04 78.68 40.84C89 23.64 89 3 89 3C89 3 68.36 3 51.16 13.32C33.96 23.64 20.2 58.04 20.2 58.04Z" stroke="#FAD30A" stroke-width="5" stroke-linecap="round" stroke-linejoin="round"/>
<path d="M3 89L16.76 82.12L9.88 75.24L3 89Z" stroke="#FAD30A" stroke-width="5" stroke-linecap="round" stroke-linejoin="round"/>
<path d="M61.48 33.96C63.3799 33.96 64.92 32.4198 64.92 30.52C64.92 28.6201 63.3799 27.08 61.48 27.08C59.5801 27.08 58.04 28.6201 58.04 30.52C58.04 32.4198 59.5801 33.96 61.48 33.96Z" stroke="#FAD30A" stroke-width="5" stroke-linecap="round" stroke-linejoin="round"/>
</svg>
