<svg width="86" height="86" viewBox="0 0 86 86" fill="none" xmlns="http://www.w3.org/2000/svg">
<path d="M58.1933 41.2442L63.8192 35.6184L50.3817 22.1809L44.7558 27.8067L29.9208 13.0076C27.1258 10.2126 22.575 10.2126 19.78 13.0076L12.9717 19.8159C10.1767 22.6109 10.1767 27.1617 12.9717 29.9567L27.7708 44.7559L10.75 61.8126V75.2501H24.1875L41.2442 58.1934L56.0433 72.9926C59.4475 76.3967 64.0342 75.1426 66.1842 72.9926L72.9925 66.1842C75.7875 63.3892 75.7875 58.8384 72.9925 56.0434L58.1933 41.2442V41.2442ZM32.895 39.6676L18.06 24.8684L24.8325 18.0601L29.3833 22.6109L25.155 26.8751L30.2075 31.9276L34.4717 27.6634L39.6675 32.8592L32.895 39.6676V39.6676ZM61.1317 67.9401L46.3325 53.1409L53.1408 46.3326L58.3367 51.5284L54.0725 55.7926L59.125 60.8451L63.3892 56.5809L67.94 61.1317L61.1317 67.9401V67.9401ZM74.2108 25.2267C74.543 24.8952 74.8066 24.5014 74.9864 24.068C75.1662 23.6345 75.2588 23.1698 75.2588 22.7005C75.2588 22.2312 75.1662 21.7665 74.9864 21.333C74.8066 20.8995 74.543 20.5057 74.2108 20.1742L65.8258 11.7892C64.1417 10.1051 61.8125 10.7501 60.7733 11.7892L54.2158 18.3467L67.6533 31.7842L74.2108 25.2267V25.2267Z" fill="#FAD30A"/>
</svg>
